<?xml version="1.0" encoding="UTF-8" standalone="no"?>
<!DOCTYPE svg PUBLIC "-//W3C//DTD SVG 1.1//EN" "http://www.w3.org/Graphics/SVG/1.1/DTD/svg11.dtd">
<svg xmlns="http://www.w3.org/2000/svg" xmlns:xlink="http://www.w3.org/1999/xlink" version="1.1" width="960pt" height="540pt" viewBox="0 0 960 540">
<g enable-background="new">
<clipPath id="cp0">
<path transform="matrix(1,0,0,-1,0,540)" d="M 0 .00001206994 L 959.76 .00001206994 L 959.76 540 L 0 540 Z "/>
</clipPath>
<g clip-path="url(#cp0)">
<path transform="matrix(1,0,0,-1,0,540)" d="M 0 540 L 959.76 540 L 959.76 .00001206994 L 0 .00001206994 Z " fill="#ffffff"/>
</g>
<path transform="matrix(1,0,0,-1,0,540)" d="M 0 540 L 960 540 L 960 .0000140816 L 0 .0000140816 Z " fill="#ffffff"/>
<path transform="matrix(1,0,0,-1,0,540)" d="M 411.6632 269.9999 L 480 211.0211 L 343.3265 211.0211 Z M 548.3368 269.9999 L 616.6735 211.0211 L 480 211.0211 Z M 480 328.9788 L 616.6735 328.9788 L 548.3368 269.9999 Z M 343.3265 328.9788 L 480 328.9788 L 411.6632 269.9999 Z " fill="#7f7f7f" fill-rule="evenodd"/>
<path transform="matrix(1,0,0,-1,0,540)" d="M 548.3366 387.9577 L 479.9997 328.9788 L 411.6629 387.9577 Z " fill="#7f7f7f" fill-rule="evenodd"/>
<path transform="matrix(1,0,0,-1,0,540)" d="M 411.6629 152.0422 L 479.9997 211.0212 L 548.3366 152.0422 Z " fill="#7f7f7f" fill-rule="evenodd"/>
</g>
</svg>
